<svg xmlns="http://www.w3.org/2000/svg" width="28" height="28" fill="none"><path fill="#FF755C" d="M12.892 17.442 10.733 19.6a1.172 1.172 0 0 1-1.645.012c-.128-.128-.256-.245-.385-.373a33.148 33.148 0 0 1-3.255-3.816c-.956-1.33-1.726-2.66-2.286-3.978-.549-1.33-.829-2.602-.829-3.815 0-.793.14-1.551.42-2.252A5.37 5.37 0 0 1 4.095 3.43c.747-.735 1.563-1.097 2.427-1.097.326 0 .653.07.945.21.303.14.571.35.781.654l2.707 3.815c.21.292.362.56.467.817.105.244.163.49.163.711 0 .28-.082.56-.245.828a3.968 3.968 0 0 1-.653.829l-.887.921a.624.624 0 0 0-.187.467c0 .093.012.175.035.268.035.094.07.164.094.234.21.385.571.886 1.085 1.493a39.957 39.957 0 0 0 1.691 1.844c.117.116.245.233.362.35.467.455.478 1.201.012 1.668ZM25.632 21.385c0 .326-.059.665-.175.992-.035.093-.07.186-.117.28-.198.42-.455.816-.793 1.19-.572.63-1.202 1.085-1.914 1.376-.011 0-.023.012-.035.012a5.893 5.893 0 0 1-2.24.431c-1.19 0-2.461-.28-3.803-.851-1.342-.572-2.683-1.342-4.013-2.31-.455-.338-.91-.677-1.342-1.038l3.815-3.816c.327.245.618.432.863.56.059.024.129.059.21.094a.806.806 0 0 0 .292.047c.198 0 .35-.07.478-.199l.887-.875c.292-.291.572-.513.84-.653.268-.163.537-.245.828-.245.222 0 .455.047.712.152.257.105.525.256.817.455l3.861 2.741c.304.21.514.455.642.747.117.291.187.583.187.91Z"/></svg>