<svg xmlns="http://www.w3.org/2000/svg" width="168" height="45" fill="none"><path fill="#222F5D" d="M14.565 2.796v6.82h-6.82v-6.82h6.82Zm3.3 19.668c.293 0 .44.147.44.44v7.656c0 .293-.147.44-.44.44h-1.76c-.47 0-.807-.015-1.012-.044-.147 2.053-.572 3.799-1.276 5.236-.704 1.467-1.834 2.816-3.388 4.048-1.526 1.232-3.667 2.523-6.424 3.872L.969 37.336c2.053-1.232 3.49-2.23 4.312-2.992.821-.763 1.32-1.51 1.496-2.244.205-.733.308-1.921.308-3.564v-15.4h8.096v8.36c0 .293.073.528.22.704.176.176.41.264.704.264h1.76Zm14.742-.396c0 1.613-.396 3.11-1.188 4.488a9.228 9.228 0 0 1-3.212 3.256C26.857 30.604 25.362 31 23.72 31h-5.852c-.293 0-.44-.147-.44-.44v-7.656c0-.293.147-.44.44-.44h5.764c.235 0 .44-.088.616-.264a.895.895 0 0 0 .264-.66v-9.636h8.096v10.164Zm.088 12.452v6.82h-13.64v-6.82h13.64ZM44.06 31c-1.643 0-3.14-.396-4.488-1.188a9.228 9.228 0 0 1-3.212-3.256 8.856 8.856 0 0 1-1.188-4.488V.948h8.096V21.54c0 .293.073.528.22.704.176.147.396.22.66.22h2.684c.293 0 .44.147.44.44v7.656c0 .293-.147.44-.44.44H44.06ZM60.556 1.564v6.82h-13.64v-6.82h13.64Zm-8.096 10.34h8.096v10.164c0 1.613-.396 3.11-1.188 4.488a9.228 9.228 0 0 1-3.212 3.256c-1.35.792-2.845 1.188-4.488 1.188h-4.84c-.293 0-.44-.147-.44-.44v-7.656c0-.293.147-.44.44-.44h4.752c.235 0 .44-.088.616-.264a.895.895 0 0 0 .264-.66v-9.636Z"/><path fill="#FF755C" d="M96.153 22.464c.294 0 .44.147.44.44v7.656c0 .293-.146.44-.44.44h-1.232c.06.528.088.924.088 1.188 0 1.76-.44 3.388-1.32 4.884a9.544 9.544 0 0 1-3.563 3.52c-1.497.88-3.14 1.32-4.928 1.32H74.814c-2.171 0-4.18-.543-6.028-1.628a12.168 12.168 0 0 1-4.4-4.4c-1.086-1.848-1.628-3.857-1.628-6.028V18.24h8.095v11.176c0 1.085.382 2.01 1.145 2.772.791.792 1.73 1.188 2.816 1.188H85.33c.352 0 .645-.117.88-.352.234-.235.352-.513.352-.836 0-.323-.118-.601-.352-.836a1.194 1.194 0 0 0-.88-.352h-9.636v-8.536h20.46ZM96.156 31c-.293 0-.44-.147-.44-.44v-7.656c0-.293.147-.44.44-.44h9.856c1.995 0 3.696-.616 5.104-1.848l3.476-3.08-5.06-2.464c-.41-.176-.733-.264-.968-.264-.528 0-1.056.235-1.584.704l-4.576 5.06-5.632-4.928 4.62-5.632c.939-1.115 2.039-1.921 3.3-2.42 1.262-.528 2.523-.792 3.784-.792 1.467 0 2.86.352 4.18 1.056l9.416 4.4c.147.059.264.088.352.088h5.676v7.92h-5.632v1.232c0 .293.074.528.22.704.176.176.411.264.704.264h5.5c.294 0 .44.147.44.44v7.656c0 .293-.146.44-.44.44h-5.5c-1.73 0-3.153-.41-4.268-1.232-1.085-.85-1.98-2.083-2.684-3.696l-.88.88a15.744 15.744 0 0 1-4.972 3.036A16.43 16.43 0 0 1 104.912 31h-8.756Zm5.456 3.52h6.82v6.82h-6.82v-6.82Zm42.026-12.452c0 1.613-.396 3.11-1.188 4.488a9.223 9.223 0 0 1-3.212 3.256c-1.349.792-2.845 1.188-4.488 1.188h-5.852c-.293 0-.44-.147-.44-.44v-7.656c0-.293.147-.44.44-.44h5.764c.235 0 .44-.088.616-.264a.895.895 0 0 0 .264-.66v-9.636h8.096v10.164Zm.088 12.452v6.82h-13.64v-6.82h13.64Zm14.137-12.056c.762 0 1.144-.308 1.144-.924a.71.71 0 0 0-.264-.572c-.176-.176-.587-.484-1.232-.924l-9.9-6.82 4.62-6.688 11.22 7.788c1.202.939 2.112 1.936 2.728 2.992.616 1.056.924 2.376.924 3.96 0 1.848-.455 3.52-1.364 5.016-.88 1.467-2.083 2.625-3.608 3.476-1.526.821-3.183 1.232-4.972 1.232h-10.956v-8.536h11.66Z"/></svg>